<svg width="167" height="167" viewBox="0 0 167 167" fill="none" xmlns="http://www.w3.org/2000/svg">
<path d="M1.00347 84.2486C1.15157 100.565 6.13469 116.471 15.3227 129.955C24.5107 143.439 37.4908 153.896 52.6218 160.003C67.7528 166.11 84.3549 167.594 100.329 164.265C116.303 160.937 130.931 152.946 142.363 141.304L83.5001 83.4998L1.00347 84.2486Z" fill="#132945"/>
<path d="M50.8572 71.8396C50.8572 71.509 51.0206 71.1997 51.2938 71.0135L85.4366 47.73C85.7765 47.4982 86.2236 47.4982 86.5634 47.73L88.2309 45.2848L86.5634 47.73L120.706 71.0135C120.979 71.1997 121.143 71.509 121.143 71.8396V120.286C121.143 120.838 120.695 121.286 120.143 121.286H51.8572C51.3049 121.286 50.8572 120.838 50.8572 120.286V71.8396Z" fill="#132945" stroke="white" stroke-width="6"/>
<rect width="67.7355" height="7.01768" rx="3.50884" transform="matrix(-0.815504 0.578752 0.578752 0.815504 86.9528 27.4287)" fill="#66CCFF"/>
<rect x="86.2535" y="28.082" width="66.6066" height="7.01768" rx="3.50884" transform="rotate(35.3628 86.2535 28.082)" fill="#66CCFF"/>
<circle cx="68.4207" cy="83.8496" r="7.55794" transform="rotate(-179.958 68.4207 83.8496)" fill="white"/>
<circle cx="68.4208" cy="83.8498" r="3.23912" transform="rotate(-179.958 68.4208 83.8498)" fill="#17345A"/>
<circle cx="87.2777" cy="72.7065" r="7.55794" transform="rotate(-179.958 87.2777 72.7065)" fill="white"/>
<circle cx="87.2778" cy="72.707" r="3.23912" transform="rotate(-179.958 87.2778 72.707)" fill="#17345A"/>
<circle cx="105.278" cy="91.5637" r="7.55794" transform="rotate(-179.958 105.278 91.5637)" fill="white"/>
<circle cx="105.278" cy="91.5642" r="3.23912" transform="rotate(-179.958 105.278 91.5642)" fill="#17345A"/>
<path d="M76.2856 120V90L72.4285 87M86.9999 120V75.8572M95.5713 120V98.5715L102.428 94.2857" stroke="white" stroke-width="5"/>
<circle cx="84" cy="84" r="75.5" stroke="white" stroke-width="5"/>
</svg>
