<svg width="89" height="87" viewBox="0 0 89 87" fill="none" xmlns="http://www.w3.org/2000/svg">
<path d="M23.2956 35.4765C23.2484 32.8331 25.357 30.6105 27.9856 30.8939C35.2849 31.6809 41.7248 34.7043 47.3055 39.964C52.9464 45.2805 56.3559 51.5359 57.5339 58.7303C57.9604 61.3348 55.862 63.5564 53.2251 63.6655C50.5439 63.7765 48.2967 61.6492 47.5545 59.0705C47.1584 57.6946 46.6164 56.2547 45.9283 54.7509C44.4699 51.4668 42.7294 48.8715 40.7068 46.9653C38.6842 45.059 35.9517 43.4384 32.5092 42.1035C31.0094 41.5412 29.5737 41.1122 28.202 40.8165C25.5893 40.2533 23.3432 38.1488 23.2956 35.4765ZM22.6683 16.2199C22.5883 13.5171 24.7263 11.2415 27.4259 11.395C40.0936 12.1151 51.1559 16.9317 60.6128 25.8447C70.1359 34.8202 75.6058 45.5818 77.0226 58.1296C77.3257 60.8137 75.1779 63.073 72.478 63.1529C69.7901 63.2325 67.5718 61.1195 67.208 58.4551C65.8548 48.544 61.4202 40.0465 53.9041 32.9627C46.385 25.876 37.6359 21.9515 27.6568 21.1893C24.9824 20.985 22.7477 18.9009 22.6683 16.2199Z" fill="#66CCFF"/>
<circle cx="31.6447" cy="56.5799" r="6.15733" transform="rotate(43.3042 31.6447 56.5799)" fill="#66CCFF"/>
</svg>
